<svg width="26" height="26" viewBox="0 0 26 26" fill="none" xmlns="http://www.w3.org/2000/svg">
<path d="M10.2242 20.3374L9.73147 19.4672L10.2242 20.3374C10.4659 20.2006 10.6574 20.0079 10.8086 19.8558C10.8224 19.842 10.8358 19.8285 10.8488 19.8154L18.7929 11.8713C18.8058 11.8585 18.8186 11.8457 18.8314 11.8329C19.1313 11.533 19.4228 11.2417 19.6308 10.969C19.8654 10.6616 20.0858 10.2637 20.0858 9.75C20.0858 9.23634 19.8654 8.83838 19.6308 8.53098C19.4228 8.25831 19.1313 7.96695 18.8314 7.66714C18.8186 7.65433 18.8057 7.64151 18.7929 7.62868L18.3713 7.20711C18.3585 7.19426 18.3457 7.18143 18.3329 7.16861C18.0331 6.8687 17.7417 6.57723 17.469 6.36919C17.1616 6.13466 16.7637 5.91421 16.25 5.91421C15.7364 5.91421 15.3384 6.13466 15.031 6.36919C14.7583 6.57723 14.467 6.86871 14.1672 7.16864C14.1544 7.18145 14.1415 7.19427 14.1287 7.20711L6.18463 15.1512C6.17155 15.1643 6.15807 15.1777 6.14426 15.1914C5.99209 15.3426 5.79947 15.5341 5.66258 15.7759L6.53278 16.2686L5.66258 15.7759C5.5257 16.0176 5.46063 16.2813 5.40923 16.4896C5.40456 16.5085 5.40001 16.527 5.39552 16.5449L4.64866 19.5323C4.64586 19.5436 4.64293 19.5552 4.63991 19.5672C4.60309 19.7137 4.55209 19.9166 4.53452 20.0962C4.5143 20.3029 4.50762 20.7548 4.8764 21.1236C5.24517 21.4924 5.69713 21.4857 5.90383 21.4655C6.08344 21.4479 6.28635 21.3969 6.43284 21.3601C6.44485 21.3571 6.45647 21.3542 6.46767 21.3514L9.45513 20.6045C9.47307 20.6 9.49152 20.5955 9.51043 20.5908C9.71873 20.5394 9.9824 20.4743 10.2242 20.3374Z" stroke="#800080" stroke-width="2"/>
<path d="M13.5417 8.125L17.875 12.4583" stroke="#800080" stroke-width="2"/>
</svg>
