<svg width="26" height="26" viewBox="0 0 26 26" fill="none" xmlns="http://www.w3.org/2000/svg">
<path d="M10.8333 16.25L10.8333 13" stroke="#800080" stroke-width="2" stroke-linecap="round"/>
<path d="M15.1667 16.25L15.1667 13" stroke="#800080" stroke-width="2" stroke-linecap="round"/>
<path d="M3.25 7.58331H22.75H20.4167C19.9104 7.58331 19.5 7.99372 19.5 8.49998V8.49998V17.6666C19.5 19.5523 19.5 20.4951 18.9142 21.0809C18.3284 21.6666 17.3856 21.6666 15.5 21.6666H10.5C8.61438 21.6666 7.67157 21.6666 7.08579 21.0809C6.5 20.4951 6.5 19.5523 6.5 17.6666V7.99998V7.99998C6.5 7.76986 6.31345 7.58331 6.08333 7.58331H3.25Z" stroke="#800080" stroke-width="2" stroke-linecap="round"/>
<path d="M10.9072 3.65147C11.0306 3.5363 11.3026 3.43452 11.681 3.36193C12.0594 3.28935 12.5231 3.25 13 3.25C13.477 3.25 13.9406 3.28935 14.319 3.36193C14.6974 3.43452 14.9694 3.5363 15.0929 3.65147" stroke="#800080" stroke-width="2" stroke-linecap="round"/>
</svg>
